<?xml version="1.0" encoding="UTF-8" standalone="no"?>
<!DOCTYPE svg PUBLIC "-//W3C//DTD SVG 1.1//EN" "http://www.w3.org/Graphics/SVG/1.1/DTD/svg11.dtd">
<svg width="100%" height="100%" viewBox="0 0 1080 1080" version="1.1" xmlns="http://www.w3.org/2000/svg" xmlns:xlink="http://www.w3.org/1999/xlink" xml:space="preserve" xmlns:serif="http://www.serif.com/" style="fill-rule:evenodd;clip-rule:evenodd;stroke-linejoin:round;stroke-miterlimit:2;">
    <g transform="matrix(0.633618,-0.633586,0.707089,0.707125,-315.642,464.382)">
        <path d="M983.267,506.812L983.267,858.603C983.267,872.861 970.367,884.42 954.455,884.42L173.855,884.42C157.943,884.42 145.043,872.861 145.043,858.603L145.043,506.812C145.043,492.553 157.943,480.995 173.855,480.995L954.455,480.995C970.367,480.995 983.267,492.553 983.267,506.812ZM902.63,682.093C902.571,620.022 805.803,602.673 779.224,659.676C763.548,693.296 787.385,731.917 825.532,738.833C865.142,746.014 902.664,717.75 902.63,682.093Z" style="fill:rgb(218,242,255);"/>
    </g>
    <g transform="matrix(0.633618,-0.633586,0.707089,0.707125,-328.299,450.276)">
        <path d="M983.267,506.812L983.267,858.603C983.267,872.861 970.367,884.42 954.455,884.42L173.855,884.42C157.943,884.42 145.043,872.861 145.043,858.603L145.043,506.812C145.043,492.553 157.943,480.995 173.855,480.995L954.455,480.995C970.367,480.995 983.267,492.553 983.267,506.812ZM902.63,682.093C902.571,620.022 805.803,602.673 779.224,659.676C763.548,693.296 787.385,731.917 825.532,738.833C865.142,746.014 902.664,717.75 902.63,682.093Z" style="fill:rgb(167,224,255);"/>
    </g>
    <g transform="matrix(-0.707431,-0.706782,0.671568,-0.672185,1035.69,825.074)">
        <path d="M588.561,362.467L500.837,362.467C498.902,362.467 497.055,361.619 495.738,360.128C494.421,358.636 493.754,356.635 493.896,354.605L515.827,41.261C516.095,37.435 519.123,34.474 522.768,34.474L566.63,34.474C570.275,34.474 573.303,37.435 573.57,41.261L595.501,354.605C595.644,356.635 594.976,358.636 593.659,360.128C592.343,361.619 590.496,362.467 588.561,362.467Z" style="fill:rgb(239,239,239);"/>
    </g>
</svg>
